# Blender 3.4.1
# www.blender.org
mtllib Terrenator_ventana.mtl
o BOD.005
v 0.953292 1.976835 2.190346
v 0.317338 2.604322 1.493113
v 0.477110 2.051007 3.356214
v 0.953292 1.976835 0.029197
v 0.317338 2.537234 0.663680
v -0.953291 1.976835 2.190346
v -0.317337 2.604322 1.493113
v -0.953291 1.976835 0.029197
v -0.317337 2.537234 0.663680
v 0.000000 2.537234 0.663680
v 0.000000 2.604322 1.493113
v -0.475851 2.051450 3.355027
vn 0.5792 0.7937 0.1861
vn -0.0000 0.9967 -0.0806
vn -0.5789 0.7938 0.1864
vn -0.0000 0.9586 0.2847
vn 0.6829 0.7303 -0.0164
vn 0.0001 0.9586 0.2847
vn -0.6829 0.7303 -0.0164
vt 0.558027 0.159750
vt 0.542425 0.187954
vt 0.540955 0.112738
vt 0.558027 0.246936
vt 0.541511 0.221410
vt 0.485627 0.159811
vt 0.518324 0.187975
vt 0.485627 0.246997
vt 0.517410 0.221430
vt 0.529460 0.221420
vt 0.530374 0.187965
vt 0.504774 0.112816
s 0
usemtl Material.001
f 1/1/1 2/2/1 3/3/1
f 5/5/2 10/10/2 11/11/2 2/2/2
f 6/6/3 12/12/3 7/7/3
f 11/11/2 10/10/2 9/9/2 7/7/2
f 7/7/4 12/12/4 11/11/4
f 5/5/5 2/2/5 1/1/5 4/4/5
f 12/12/6 3/3/6 2/2/6 11/11/6
f 6/6/7 7/7/7 9/9/7 8/8/7
